<?xml version="1.0" encoding="utf-8"?>
<!-- Generator: Adobe Illustrator 28.1.0, SVG Export Plug-In . SVG Version: 6.00 Build 0)  -->
<svg version="1.1"
	 id="Ebene_1" xmlns:svg="http://www.w3.org/2000/svg" xmlns:dc="http://purl.org/dc/elements/1.1/" xmlns:cc="http://creativecommons.org/ns#" xmlns:rdf="http://www.w3.org/1999/02/22-rdf-syntax-ns#"
	 xmlns="http://www.w3.org/2000/svg" xmlns:xlink="http://www.w3.org/1999/xlink" x="0px" y="0px" viewBox="0 0 300 471"
	 style="enable-background:new 0 0 300 471;" xml:space="preserve">
<style type="text/css">
	.st0{fill:#D20515;}
	.st1{fill:#FFFFFF;}
</style>
<g id="g7" transform="translate(-43.5,-12)">
	<path id="path9" d="M92.3,362.6c0,4.7-2.2,7.2-8.1,7.2H70.6v-26.4h13.1c6.1,0,8.2,2.4,8.2,6.9c0,3.4-1.3,5-4.9,5.9l-0.7,0.2
		l0.6,0.1C91.1,357.4,92.3,358.9,92.3,362.6L92.3,362.6z M76.8,354.5h5.5c2.2,0,3.2-1,3.2-3.2c0-2.3-0.9-3.3-3.2-3.3h-5.5
		L76.8,354.5L76.8,354.5z M86,362c0-2.4-1-3.4-3.2-3.4h-5.9v6.8h5.9C85.1,365.3,86,364.4,86,362L86,362L86,362z M96.6,361.2v-17.8
		h6.6V361c0,2.9,1.3,4,4.9,4c3.6,0,4.9-1.1,4.9-4v-17.6h6.6v17.8c0,6.2-3.6,9-11.5,9S96.7,367.4,96.6,361.2L96.6,361.2L96.6,361.2z
		 M150.4,343.5v26.4h-8l-11.2-19.1v19.1h-6.1v-26.4h8l11.2,19.1v-19.1L150.4,343.5L150.4,343.5z M155.8,343.5h11.8
		c9.2,0,11.6,3.8,11.6,13.2c0,9.1-2.7,13.2-11.6,13.2h-11.8L155.8,343.5L155.8,343.5z M167.4,364.8c3.8,0,5.1-2,5.1-8.2
		c0-6.2-1.2-8.1-5.1-8.1h-5v16.3L167.4,364.8L167.4,364.8z M184,343.4h18.5v5h-11.9v5.5h9.9v5h-9.9v5.8h12.1v5H184V343.4z
		 M206.6,368.8v-5.2c2.8,1,5.8,1.5,8.8,1.4c3,0,4.4-0.8,4.4-2.9c0-1.8-0.6-2.3-3-2.8l-4.4-0.9c-4.6-1-6.1-2.8-6.1-7.3
		c0-5.8,3.4-8.3,10.2-8.3c2.9,0,5.7,0.5,8.4,1.4v5.1c-2.6-0.9-5.3-1.4-8-1.4c-3.3,0-4.4,0.9-4.4,2.9c0,1.7,0.8,2.2,2.9,2.7l4.3,0.9
		c5,1.1,6.3,2.7,6.3,7.4c0,5.6-3.5,8.2-10.6,8.2C212.5,370.2,209.5,369.7,206.6,368.8L206.6,368.8z M230.6,343.4h6.6v21.3h11.3v5
		h-17.9V343.4z M252.6,343.4h6.6v26.4h-6.6V343.4z M286.5,354.5v14.3c-2.9,0.9-6,1.4-9.1,1.4c-9.2,0-13.4-4-13.4-13.6
		c0-9.6,4.3-13.6,13.4-13.6c3,0,5.9,0.5,8.7,1.5v5.1c-2.6-0.9-5.4-1.4-8.2-1.4c-5.5,0-7.3,2.2-7.3,8.5c0,6.5,1.8,8.6,7,8.6
		c1.2,0,2.3-0.1,3.4-0.2v-5.9h-4.9v-4.5L286.5,354.5L286.5,354.5z M307.9,364.3h-10.3l-1.9,5.5h-6.6l9.4-26.4h8.4l9.4,26.4h-6.6
		L307.9,364.3z M302.8,347.6l-3.8,11.9h7.6L302.8,347.6z"/>
	<rect id="rect11" x="71" y="124.8" class="st0" width="245" height="196"/>
	<path id="path13" class="st1" d="M273,228c0.1,0.5-0.3,0.8-1.2,1.5l-0.5,0.3l0.2,0.4c0.1,0.2-0.1,0.6-0.5,0.8l-0.8,0.4
		c-0.4,0.2-0.8,0.2-0.9-0.1l-0.2-0.3l-1,0.5l0.2,0.3c0.1,0.2-0.1,0.6-0.5,0.7l-0.8,0.4c-0.4,0.2-0.8,0.1-0.9-0.1l-0.1-0.3
		c-3.1,1.5-6.7,3-10.3,4.7l0.2,0.5c0.1,0.2-0.1,0.6-0.5,0.7l-0.8,0.4c-0.4,0.2-0.8,0.1-0.9-0.1l-0.2-0.5l-1.2,0.6l0.2,0.5
		c0.1,0.2-0.1,0.6-0.5,0.7l-0.8,0.4c-0.4,0.2-0.8,0.1-0.9-0.1l-0.2-0.5c-1.6,0.7-3.4,1-4.7-1.5c-0.6-1.1-0.6-3.7-1-5.1
		c-0.2-0.4-0.6-0.8-1.1-0.8c-16-3.1-21.4,0.3-31.6-2.2c-3.2-0.8-5-3.7-8.9-3.8c-8.6-0.3-11.2-0.1-20.6-0.5c-0.4,1.4-0.5,1.7-0.5,1.7
		l-32.9-0.2l5,2.5l1.6,14.5c0,0-1.3,0.4-1.7,0.4c0.3,2.9,0.6,6.8,0.8,10.4c0.1,3.2,0.3,6.5,0.3,8.6c0,1.4-0.3,2.7-1,3.9
		c-0.6,1.1-1.5,2-2.5,2.7c-0.3,0.2-1.6,1.1-3,1.9c-1.5,0.8-3.2,1.8-4.1,2.2c0.1,0.4,0.3,0.8,0.5,1.1c-20,9.7-44.8,13-52.9,28.4
		c-1,1.8-4.2,0.9-4.3-1.1c0-0.9,0-2.3,0-3.1h-0.3c-0.3,0-0.5-0.4-0.4-0.8v-0.9c0-0.4,0.2-0.7,0.5-0.7h0.3c0.1-0.9,0.3-1.8,0.5-2.6
		l-0.3-0.1c-0.2-0.1-0.3-0.5-0.2-0.9l0.3-0.8c0.1-0.4,0.4-0.6,0.7-0.6l0.3,0.1c1.4-3.3,4.2-4.8,5.5-8l-0.2-0.1
		c-0.3-0.1-0.3-0.5-0.2-0.9l0.3-0.9c0.1-0.4,0.5-0.6,0.7-0.5l0.2,0.1c0.2-0.5,0.4-1,0.7-1.5l-0.3-0.2c-0.2-0.1-0.2-0.5,0-0.9
		l0.5-0.8c0.2-0.3,0.6-0.5,0.8-0.4l0.1,0.1h0.1c0.1,0,0.1,0,0.2-0.1c0.1-0.1,0.3-0.3,0.4-0.4c1.3-0.9,3-1,4.2-0.1
		c1.3,0.8,6.2,3.6,10.9-0.7c7.8-7,16.9-16.5,23.8-16.9c-1.9-4-5.1-12.4-5.5-15.5l-2.2-0.5c-1.2-2.6-4.1-14.5-4.9-23.5
		c0,0-1-9.7,0-13.1c-0.5-0.1-1.5,0.7-1.8,0.7c-1.3-3.1,2.8-29.1,6.9-36.7l6.2-2.5c-0.6-0.1-5.1-0.3-16.9-1.2
		c-6.6,5.8-14.2,12.1-18.1,15.5c-0.7,0.5-1.7,4.2-1.7,4.2s-1.9,1.7-3.8,3c-2.4,1.7-8.2,3-9.5,1c-0.3-0.5-0.2-0.7,0-1
		c0.9-1,4.3-2.6,5.5-4.7c-1.9,1-3.9,1.9-5.6,1.8c-0.7,0-1.1-1.8-0.2-2.1c2.5-1,4.4-1.5,5.9-3.6s3.1-3.3,5.4-3.3
		c0,0,10.9-14.3,17.4-21.1c1.8-1.9,5.1-1.2,5.1-1.2l0.6-2.2c0,0,22.1-2.6,32.4,0.8c-0.2-6.3,2.6-14.6,12.4-14.6
		c5,0,12.4,4.4,13.4,9.8c0.3,1.7-0.7,2.8-1.2,4.9c-0.9,3.2,0.3,6.7,0,7.8c-0.3,0.9-1.3,0.8-2.2,2.1c-0.8,1.2-1.5,2.5-2,3.8l-1.3,3
		l-6.9-0.5c-2.5,5.4-7.7,16.5-9.5,27.5l0,0c5.4,0.5,30,4,30,4l0.6,2c0,0,10.3,1.2,18.8,5.3c1.9,0.5,6.6-0.2,9.8,1.2
		c0.2-0.1,0.7-0.7,1-0.8c11,3.4,20.2,9.2,30.8,11.8c0,0,5,1.2,6.6,1.5c2.8,0.5,5.7,0.9,8.5,1.1c3.4,0.3,5.3,0.2,7.8,0.4
		C270.2,225.7,272.3,225.4,273,228 M288.8,194.4c-7.5,0-13.6,6.1-13.6,13.6c0,7.5,6.1,13.6,13.6,13.6c7.5,0,13.6-6.1,13.6-13.6
		c0,0,0,0,0,0C302.4,200.5,296.3,194.4,288.8,194.4L288.8,194.4L288.8,194.4z"/>
</g>
</svg>
