<?xml version="1.0" encoding="utf-8"?>
<!-- Generator: Adobe Illustrator 28.1.0, SVG Export Plug-In . SVG Version: 6.00 Build 0)  -->
<svg version="1.1" id="Layer_1" xmlns="http://www.w3.org/2000/svg" xmlns:xlink="http://www.w3.org/1999/xlink" x="0px" y="0px"
	 viewBox="0 0 496 471" style="enable-background:new 0 0 496 471;" xml:space="preserve">
<style type="text/css">
	.st0{fill:#FF4B44;}
</style>
<path class="st0" d="M225.1,249.1v12.3h-28.4L191,255c-0.9-1.1-1.5-2.5-1.5-3.9v-50.7h12.7v48.8L225.1,249.1L225.1,249.1z
	 M321.9,249.1v12.3h-28.4l-5.7-6.4c-1-1.1-1.5-2.5-1.5-3.9v-50.7H299v48.8L321.9,249.1L321.9,249.1z M329.1,200.4h12.7v61.1h-12.7
	V200.4z M269.8,217.9l-3.4-13.2c-0.6-2.5-2.9-4.3-5.6-4.3H246l-4.5,17.6l-9.6,37.5c-0.2,0.8-0.3,1.7-0.3,2.5v3.5H243l2.4-9.2l18.9-9
	l4.7,18.3h10.6V256L269.8,217.9L269.8,217.9z M248.4,240.3l5.8-22.5l1.8-6.9l1.8,6.9l5.8,22.5H248.4L248.4,240.3z M438.2,217.9
	l-3.3-13.2c-0.6-2.5-2.9-4.3-5.6-4.3h-14.8L410,218l-9.7,37.5c-0.2,0.8-0.3,1.7-0.3,2.5v3.5h11.4l2.4-9.2l18.9-9l4.7,18.3H448V256
	L438.2,217.9L438.2,217.9z M416.8,240.3l5.8-22.5l1.8-6.9l1.8,6.9l5.8,22.5H416.8z M395.8,239.4v3c0,10.8-8.7,19.6-19.6,19.6h-5.9
	c-2.4,0-4.7-0.4-6.8-1.3c-7.5-2.7-12.7-10-12.7-18.3V220c0-0.7,0-1.5,0.1-2.1c0.8-7.5,5.8-13.7,12.6-16.2c2.1-0.8,4.4-1.3,6.8-1.3
	h5.9c10.1,0,18.4,7.7,19.5,17.5h-12.4v-1.5c0-2.4-1.9-4.3-4.3-4.3h-11.1c-2.4,0-4.3,1.9-4.3,4.3v29.3c0,2.4,1.9,4.3,4.3,4.3H379
	c2.4,0,4.3-1.9,4.3-4.3v-7.9h-10.7v-12h14.7l0.2,0.2l5.4,5.8C394.8,233.8,395.8,236.5,395.8,239.4L395.8,239.4z M73,233.2h25.3
	l-38.5,19.5l-0.3-0.5L51.1,241c-4-5.3-4.1-12.5-0.3-17.9l31.7-44.4h29.3L73,233.2L73,233.2z M106,269.3h29.6l-45.2,22.9l-0.2-0.3
	l-10-13.1c-4-5.2-4.1-12.3-0.3-17.7l57.4-82.4h31.9L106,269.3L106,269.3z"/>
</svg>
