<?xml version="1.0" encoding="utf-8"?>
<!-- Generator: Adobe Illustrator 28.1.0, SVG Export Plug-In . SVG Version: 6.00 Build 0)  -->
<svg version="1.1" id="Layer_1" xmlns="http://www.w3.org/2000/svg" xmlns:xlink="http://www.w3.org/1999/xlink" x="0px" y="0px"
	 viewBox="0 0 496 165.6" style="enable-background:new 0 0 496 165.6;" xml:space="preserve">
<style type="text/css">
	.st0{fill:#FF4B44;}
</style>
<path class="st0" d="M225.1,96.4v12.3h-28.4l-5.7-6.4c-0.9-1.1-1.5-2.5-1.5-3.9V47.7h12.7v48.8L225.1,96.4L225.1,96.4z M321.9,96.4
	v12.3h-28.4l-5.7-6.4c-1-1.1-1.5-2.5-1.5-3.9V47.7H299v48.8L321.9,96.4L321.9,96.4z M329.1,47.7h12.7v61.1h-12.7V47.7z M269.8,65.2
	L266.4,52c-0.6-2.5-2.9-4.3-5.6-4.3H246l-4.5,17.6l-9.6,37.5c-0.2,0.8-0.3,1.7-0.3,2.5v3.5H243l2.4-9.2l18.9-9l4.7,18.3h10.6v-5.6
	L269.8,65.2L269.8,65.2z M248.4,87.6l5.8-22.5l1.8-6.9l1.8,6.9l5.8,22.5H248.4L248.4,87.6z M438.2,65.2L434.9,52
	c-0.6-2.5-2.9-4.3-5.6-4.3h-14.8L410,65.3l-9.7,37.5c-0.2,0.8-0.3,1.7-0.3,2.5v3.5h11.4l2.4-9.2l18.9-9l4.7,18.3H448v-5.6
	L438.2,65.2L438.2,65.2z M416.8,87.6l5.8-22.5l1.8-6.9l1.8,6.9l5.8,22.5H416.8z M395.8,86.7v3c0,10.8-8.7,19.6-19.6,19.6h-5.9
	c-2.4,0-4.7-0.4-6.8-1.3c-7.5-2.7-12.7-10-12.7-18.3V67.3c0-0.7,0-1.5,0.1-2.1c0.8-7.5,5.8-13.7,12.6-16.2c2.1-0.8,4.4-1.3,6.8-1.3
	h5.9c10.1,0,18.4,7.7,19.5,17.5h-12.4v-1.5c0-2.4-1.9-4.3-4.3-4.3h-11.1c-2.4,0-4.3,1.9-4.3,4.3V93c0,2.4,1.9,4.3,4.3,4.3H379
	c2.4,0,4.3-1.9,4.3-4.3v-7.9h-10.7v-12h14.7l0.2,0.2l5.4,5.8C394.8,81.1,395.8,83.8,395.8,86.7L395.8,86.7z M73,80.5h25.3L59.8,100
	l-0.3-0.5l-8.4-11.2c-4-5.3-4.1-12.5-0.3-17.9L82.5,26h29.3L73,80.5L73,80.5z M106,116.6h29.6l-45.2,22.9l-0.2-0.3l-10-13.1
	c-4-5.2-4.1-12.3-0.3-17.7L137.3,26h31.9L106,116.6L106,116.6z"/>
</svg>
