<?xml version="1.0" encoding="utf-8"?>
<!-- Generator: Adobe Illustrator 28.1.0, SVG Export Plug-In . SVG Version: 6.00 Build 0)  -->
<svg version="1.1" id="Layer_1" xmlns="http://www.w3.org/2000/svg" xmlns:xlink="http://www.w3.org/1999/xlink" x="0px" y="0px"
	 viewBox="0 0 329.1 471.3" style="enable-background:new 0 0 329.1 471.3;" xml:space="preserve">
<style type="text/css">
	.st0{fill:#091C3E;}
	.st1{fill-rule:evenodd;clip-rule:evenodd;fill:#FFFFFF;}
	.st2{fill:#CDFB0A;}
	.st3{fill:#FFFFFF;}
</style>
<g id="Layer1">
	<path id="Layer2" class="st0" d="M11,10.8h306.1V460H11L11,10.8z M7.7,7.5h313.7v456.3H7.7V7.5z"/>
	<g id="Layer3">
		<g id="Layer4">
			<g id="Layer5">
				<path id="Layer6" class="st1" d="M170.4,366.5h24.4v6h-17.7v8.6h17.3v5.7h-17.3v8.6h17.7v6h-24.4V366.5z M249.2,393.3h6.5
					c0.8,2.9,2.9,3.6,6.7,3.6c2.9,0,4.8-1.1,4.8-2.7c0-1.1-0.6-1.7-3-2.2l-6.2-1.4c-5.5-1.3-8.2-3.6-8.2-7.4c0-5.4,4.8-8.2,11.6-8.2
					c7.8,0,11.7,3.5,12,8.9h-6.5c-0.6-2.9-3-3.6-6-3.6c-2.9,0-4.4,1-4.4,2.5c0,1.1,1.1,1.7,4.3,2.4l5.5,1.1c5.2,1.1,7.8,3.8,7.8,7.3
					c0,4.9-4.3,8.6-11.7,8.6C254.1,402,250.1,398.4,249.2,393.3L249.2,393.3z M247.3,401.4h-7c-4.4,0-6.8-2.7-6.8-6.2v-13.8h-4.9
					v-5.9h4.9v-7.3h6.5v7.3h7.3v5.9H240v12c0,1.4,1,2.1,2.4,2.1h4.9L247.3,401.4z M225.7,375.7v25.7h-6.5V399c-2.4,1.9-5.2,3-8.2,3
					c-0.3,0-0.5,0-0.6,0c-7.4-0.2-13.3-6.3-13.2-13.8c0.2-7.4,6.3-13.3,13.8-13.2c3,0,6,1.1,8.2,3v-2.4H225.7z M211.6,396.3
					c4.3,0,7.8-3.5,7.8-7.8c0-0.2,0-0.2,0-0.2c0-4.3-3.6-7.8-7.9-7.8s-7.8,3.6-7.8,7.9C203.7,392.8,207.3,396.3,211.6,396.3
					L211.6,396.3z"/>
			</g>
		</g>
		<g id="Layer7">
			<g id="Layer8">
				<path id="Layer9" class="st1" d="M109.6,342.8h-8.4v-33.4h8.4V342.8z M95,335.8v7H70.8v-33.4h8.4v26.5L95,335.8z M206.1,335.9
					h16.5v7h-24.9v-33.4h24.4v7h-16v5.9h13v6.7h-13V335.9z M252.7,309.2h4.9v33.4h-8.1v-23.5l-7.4,4l-1.6-7.1l12.2-6.7V309.2z
					 M180.3,309.3h8.4V328c0,9.8-6.3,15.1-15.8,15.1S157,338,157,328v-18.7h8.4v19.3c0,3.6,2.2,7.3,7.4,7.3c5.2,0,7.4-3.6,7.4-7.3
					V309.3z M156.2,375.7h1.7v4.6h-2.1c-3.2,0-5.5,2.5-5.5,6.5v14.4h-4.9v-25.4h4.9v3.2C151.4,377,153.8,375.7,156.2,375.7z
					 M113.9,389c-0.2,7.3-6.2,13.2-13.5,13c-3.3,0-6.7-1.4-9-3.8v3.2h-4.9v-34.9h4.9v12.7c2.4-2.4,5.7-3.8,9-3.8c0.3,0,0.5,0,0.6,0
					C108.3,375.6,114.2,381.7,113.9,389L113.9,389z M108.9,388.5c-0.2-4.8-4-8.7-8.9-8.7c-4.8,0.2-8.7,4-8.7,8.9s4,8.7,8.9,8.7
					c-0.2,0,0,0,0,0C105,397.4,108.8,393.5,108.9,388.5z M141.9,390.3h-20.6c0.6,4.1,4.3,7.3,8.4,7.3c2.9,0.2,5.5-1.3,7.3-3.6
					l3.6,2.7c-2.5,3.5-6.7,5.5-10.9,5.4c-7.6,0-13.5-5.7-13.5-13.3c0-7.3,5.9-13.2,13-13.2c7.3,0,12.7,5.5,12.7,13.2V390.3z
					 M136.8,386.3c-0.8-3.8-3.8-6.5-7.6-6.5c-3.8,0-6.8,2.7-7.8,6.5H136.8z M76.8,366.5H82v34.9h-5.1v-3.3c-2.4,2.4-5.7,3.8-9.2,3.8
					c-7.4,0-13.2-5.4-13.2-13.6v-21.7h5.2v21.5c0,5.5,3.5,9.2,8.4,9.2c4.8,0,8.6-3.6,8.6-9.2V366.5z M117,326
					c0-9.5,7.6-17.1,19-17.1c5.5,0,10,1.1,12.4,2.4l-2.1,7.3c-2.9-1.3-5.5-2.1-10-2.1c-6.3,0-10.6,3.8-10.6,9.7s4.8,10,10.6,10
					c2.1,0,3.8-0.5,5.2-1.1v-8.6l7.8-1v13.6c-1.7,1.4-6,4.1-13.5,4.1C124.8,343.2,117,335.6,117,326L117,326z"/>
			</g>
		</g>
		<g id="Layer10">
			<g id="Layer11">
				<path id="Layer12" class="st2" d="M272.8,177.5c-16,33.8-33.9,63.1-57.2,91.6c-32.5,5.1-64,4.3-98.9,1l22.8-36.4
					c18.2,1,36.4,1.1,54.7-0.5c13.2-17.4,24.2-36.3,34.2-55.8c-7.6-15.2-16.2-29.2-26.5-43.9l22.7-36.3
					C243.3,121.9,260.4,148.3,272.8,177.5L272.8,177.5z"/>
				<path id="Layer13" class="st2" d="M126.4,207.7L103.7,244c-19.6-26-35.5-51.2-48.2-80.2c14.4-31.8,35-65.1,57.2-91.7
					c34.7-4,66.1-4.4,98.9-1l-22.8,36.4c-18.2-1-36.4-1.1-54.7,0.5c-13.3,17.3-24.2,36.3-34.2,55.8
					C107.5,178.9,116.1,192.5,126.4,207.7z"/>
			</g>
			<circle id="Layer14" class="st3" cx="164.1" cy="170.5" r="29.5"/>
		</g>
	</g>
</g>
</svg>
