<?xml version="1.0" encoding="utf-8"?>
<!-- Generator: Adobe Illustrator 27.9.0, SVG Export Plug-In . SVG Version: 6.00 Build 0)  -->
<svg version="1.1" id="Layer_1" xmlns="http://www.w3.org/2000/svg" xmlns:xlink="http://www.w3.org/1999/xlink" x="0px" y="0px"
	 viewBox="0 0 800 800" style="enable-background:new 0 0 800 800;" xml:space="preserve">
<style type="text/css">
	.st0{opacity:0.82;}
</style>
<g id="XMLID_240_" class="st0">
	<path id="XMLID_241_" d="M152.6,214.4h494.8c34.2,0,61.9-27.7,61.9-61.9s-27.7-61.9-61.9-61.9H152.6c-34.2,0-61.9,27.7-61.9,61.9
		S118.4,214.4,152.6,214.4z"/>
	<path id="XMLID_242_" d="M647.4,338.1H152.6c-34.2,0-61.9,27.7-61.9,61.9s27.7,61.9,61.9,61.9h494.8c34.2,0,61.9-27.7,61.9-61.9
		S681.6,338.1,647.4,338.1z"/>
	<path id="XMLID_243_" d="M647.4,585.6H152.6c-34.2,0-61.9,27.7-61.9,61.9c0,34.2,27.7,61.9,61.9,61.9h494.8
		c34.2,0,61.9-27.7,61.9-61.9C709.3,613.3,681.6,585.6,647.4,585.6z"/>
</g>
</svg>
