<?xml version="1.0" encoding="utf-8"?>
<!-- Generator: Adobe Illustrator 27.9.0, SVG Export Plug-In . SVG Version: 6.00 Build 0)  -->
<svg version="1.1" id="Layer_1" xmlns="http://www.w3.org/2000/svg" xmlns:xlink="http://www.w3.org/1999/xlink" x="0px" y="0px"
	 viewBox="0 0 800 800" style="enable-background:new 0 0 800 800;" xml:space="preserve">
<style type="text/css">
	.st0{opacity:0.82;}
</style>
<g id="XMLID_240_" class="st0">
	<path id="XMLID_241_" d="M201.6,251.2h396.8c27.4,0,49.6-22.2,49.6-49.6S625.8,152,598.4,152H201.6c-27.4,0-49.6,22.2-49.6,49.6
		S174.2,251.2,201.6,251.2z"/>
	<path id="XMLID_242_" d="M598.4,350.4H201.6c-27.4,0-49.6,22.2-49.6,49.6c0,27.4,22.2,49.6,49.6,49.6h396.8
		c27.4,0,49.6-22.2,49.6-49.6C648,372.6,625.8,350.4,598.4,350.4z"/>
	<path id="XMLID_243_" d="M598.4,548.8H201.6c-27.4,0-49.6,22.2-49.6,49.6c0,27.4,22.2,49.6,49.6,49.6h396.8
		c27.4,0,49.6-22.2,49.6-49.6C648,571,625.8,548.8,598.4,548.8z"/>
</g>
</svg>
