<?xml version="1.0" encoding="utf-8"?>
<!-- Generator: Adobe Illustrator 27.9.0, SVG Export Plug-In . SVG Version: 6.00 Build 0)  -->
<svg version="1.1" id="Layer_1" xmlns="http://www.w3.org/2000/svg" xmlns:xlink="http://www.w3.org/1999/xlink" x="0px" y="0px"
	 viewBox="0 0 800 800" style="enable-background:new 0 0 800 800;" xml:space="preserve">
<g id="XMLID_240_">
	<path id="XMLID_241_" d="M122.9,192.2h554.2c38.3,0,69.3-31,69.3-69.3s-31-69.3-69.3-69.3H122.9c-38.3,0-69.3,31-69.3,69.3
		S84.7,192.2,122.9,192.2z"/>
	<path id="XMLID_242_" d="M677.1,330.7H122.9c-38.3,0-69.3,31-69.3,69.3s31,69.3,69.3,69.3h554.2c38.3,0,69.3-31,69.3-69.3
		S715.3,330.7,677.1,330.7z"/>
	<path id="XMLID_243_" d="M677.1,607.8H122.9c-38.3,0-69.3,31-69.3,69.3c0,38.3,31,69.3,69.3,69.3h554.2c38.3,0,69.3-31,69.3-69.3
		C746.3,638.8,715.3,607.8,677.1,607.8z"/>
</g>
</svg>
