<?xml version="1.0" encoding="utf-8"?>
<!-- Generator: Adobe Illustrator 28.1.0, SVG Export Plug-In . SVG Version: 6.00 Build 0)  -->
<svg version="1.1"
	 id="svg2" xmlns:svg="http://www.w3.org/2000/svg" xmlns:inkscape="http://www.inkscape.org/namespaces/inkscape" xmlns:sodipodi="http://sodipodi.sourceforge.net/DTD/sodipodi-0.dtd" xmlns:dc="http://purl.org/dc/elements/1.1/" xmlns:cc="http://creativecommons.org/ns#" xmlns:rdf="http://www.w3.org/1999/02/22-rdf-syntax-ns#" inkscape:version="0.91 r13725"
	 xmlns="http://www.w3.org/2000/svg" xmlns:xlink="http://www.w3.org/1999/xlink" x="0px" y="0px" viewBox="0 0 311.5 154.4"
	 style="enable-background:new 0 0 311.5 154.4;" xml:space="preserve">
<style type="text/css">
	.st0{fill:#3D195B;}
</style>
<sodipodi:namedview  bordercolor="#666666" borderopacity="1" fit-margin-bottom="0" fit-margin-left="0" fit-margin-right="0" fit-margin-top="0" gridtolerance="10" guidetolerance="10" id="namedview6" inkscape:current-layer="svg2" inkscape:cx="102.3475" inkscape:cy="43.106499" inkscape:pageopacity="0" inkscape:pageshadow="2" inkscape:window-height="705" inkscape:window-maximized="1" inkscape:window-width="1366" inkscape:window-x="-8" inkscape:window-y="-8" inkscape:zoom="1.4069713" objecttolerance="10" pagecolor="#ffffff" showgrid="false">
	</sodipodi:namedview>
<path id="path44_1_" inkscape:connector-curvature="0" class="st0" d="M224.9,95.2l0.7-3h5.7v22.5c0,4.4-1.2,7.5-4.1,9.8
	c-2.2,1.7-5.2,2.9-8.8,2.9c-4.9,0-8.4-1.7-11.3-4.4l3.6-5c1.8,1.7,4.1,3.2,7.2,3.2c4.8,0,6.9-2.4,6.9-5.9v-1.7
	c-1.9,2-4.2,2.8-6.8,2.8c-6.7,0-12-5.5-12-12.4s5.5-12.1,12.1-12.1C221.1,91.9,223.5,93.2,224.9,95.2 M219.1,97.8
	c-3.4,0-6.2,2.6-6.2,6.2c0,3.4,2.7,6.2,6.2,6.2s6.2-2.7,6.2-6.2C225.3,100.4,222.6,97.8,219.1,97.8 M181.9,58.7
	c-2.7,0-5,1.6-5.5,4.1h10.9C186.8,60.3,184.6,58.7,181.9,58.7 M182.3,77.7c-7.3,0-12.7-5-12.7-12.3c0-6.6,4.8-12.5,12.5-12.5
	c5.7,0,11.6,4.3,11.6,12.3c0,0.6,0,1.4-0.2,2.3h-17.2c0.6,2.6,3,4.4,5.9,4.4c2.6,0,4.7-1,6.3-2.7l4,4
	C189.9,76.2,186.2,77.7,182.3,77.7 M255.4,58.7c-2.7,0-5,1.6-5.5,4.1h10.9C260.2,60.3,258,58.7,255.4,58.7 M255.7,77.7
	c-7.3,0-12.7-5-12.7-12.3c0-6.6,4.8-12.5,12.5-12.5c5.7,0,11.6,4.3,11.6,12.3c0,0.6,0,1.4-0.2,2.3h-17.2c0.6,2.6,3,4.4,5.9,4.4
	c2.6,0,4.7-1,6.3-2.7l4,4C263.4,76.2,259.7,77.7,255.7,77.7 M272.2,97.4c-2.7,0-5,1.6-5.5,4.1h10.9C277,99,274.8,97.4,272.2,97.4
	 M272.5,116.4c-7.3,0-12.7-5-12.7-12.3c0-6.6,4.8-12.5,12.5-12.5c5.7,0,11.6,4.3,11.6,12.3c0,0.6,0,1.4-0.2,2.3h-17.2
	c0.6,2.6,3,4.4,5.9,4.4c2.6,0,4.7-1,6.3-2.7l4,4C280.2,114.9,276.5,116.4,272.5,116.4 M164.3,97.4c-2.7,0-5,1.6-5.5,4.1h10.9
	C169.2,99,167,97.4,164.3,97.4 M164.7,116.4c-7.3,0-12.7-5-12.7-12.3c0-6.6,4.8-12.5,12.5-12.5c5.7,0,11.6,4.3,11.6,12.3
	c0,0.6,0,1.4-0.2,2.3h-17.2c0.6,2.6,3,4.4,5.9,4.4c2.6,0,4.7-1,6.3-2.7l4,4C172.3,114.9,168.7,116.4,164.7,116.4 M128.5,115.8V80.9
	h6.9v28.3h15.1v6.6C150.6,115.8,128.5,115.8,128.5,115.8z M155,77.1V53.6h5.6l0.7,3.4c1.1-2.2,3.2-3.7,6-3.7c0.6,0,1.2,0.1,1.8,0.3
	v6.2c-0.8-0.2-1.5-0.3-2.3-0.3c-3.2,0-5.4,1.9-5.4,5.7v11.9H155L155,77.1z M269.7,77.1V53.6h5.6L276,57c1.1-2.2,3.2-3.7,6-3.7
	c0.6,0,1.2,0.1,1.8,0.3v6.2c-0.8-0.2-1.5-0.3-2.3-0.3c-3.2,0-5.4,1.9-5.4,5.7v11.9H269.7L269.7,77.1z M224.2,63.2
	c0-2.6-1.4-4.1-3.6-4.1c-2.5,0-3.9,1.6-3.9,4.2v13.8h-6.5V63.2c0-2.6-1.4-4.1-3.6-4.1c-2.6,0-3.9,1.6-3.9,4.2v13.8h-6.5V53.6h5.7
	l0.7,3.1c0,0,1.4-3.7,5.8-3.7c2.7,0,5,1.1,6.6,3.5l0.2,0.3l0.2-0.3c2.3-3.3,5.1-3.5,6.9-3.5c5,0,8.4,3.8,8.4,9.1v15h-6.5L224.2,63.2
	L224.2,63.2L224.2,63.2z M237.3,50.4c-2.3,0-4-1.8-4-4c0-2.3,1.8-4,4-4c2.3,0,4,1.8,4,4C241.4,48.6,239.6,50.4,237.3,50.4 M234,53.6
	h6.5v23.6H234V53.6z M191.3,97.8c-3.5,0-6.2,2.6-6.2,6.2c0,3.4,2.6,6.2,6.2,6.2c3.4,0,6.1-2.7,6.1-6.2
	C197.4,100.4,194.8,97.8,191.3,97.8 M190,116.4c-6.2,0-11.7-5.7-11.7-12.4c0-6.6,5.5-12.1,11.7-12.1c3.5,0,5.9,1.2,7.3,3.4l0.7-3.1
	h5.7v23.6H198l-0.7-3C195.9,114.9,193.3,116.4,190,116.4 M246,116.4c-5.2,0-11.5-2.8-11.5-11.6V92.3h6.5v12.1c0,4,1.8,5.8,5,5.8
	c2.9,0,5-2,5-5.8V92.3h6.5v12.6C257.6,113.6,251.1,116.4,246,116.4 M135.5,58.8h4c3.5,0,6.1-1.9,6.1-5.5c0-3.5-2.5-5.4-6.1-5.4h-4
	C135.5,47.9,135.5,58.8,135.5,58.8z M128.5,77.1V41.3h11.3c7.4,0,12.9,4.4,12.9,12c0,7.7-5.5,12.1-12.9,12.1h-4.4v11.7H128.5z"/>
<path id="path56" inkscape:connector-curvature="0" class="st0" d="M103.7,72.6c-2.4,1.9-4.4,3-4.4,3v6.1c1.7,1.8,3.4,3.4,4.6,6.1
	C106.3,83.7,105.8,77.6,103.7,72.6 M101.7,92.7c0,0-0.5-2.5-2.5-4.9l-4.7,0.1c0,0-6.3,5.3-10.2,5.4c0,0,2.1,3.8,3.2,5.9
	c2.1-0.5,5.8-2.1,7.3-3.8c0,0,1,3.1,0.8,6.8C97.8,101,100.7,97.8,101.7,92.7 M95.7,81.6v-6.1c0,0-2.8-0.9-5.8-3.1
	c-6,0.9-13.3,6.8-13.3,6.8s2.5,4.5,5.1,9.4C86.5,89.2,93.5,83.4,95.7,81.6 M111.7,107.1l-3.9-4.2c-1.1,11.3-6.8,20.8-17.1,27.5
	l-1.6-6.1c-8.8,6.2-23.9,10.2-36.9,3.1c1.6-8,3-16.2,0-25.9c-7.2,10.9-13.6,15.1-13.6,15.1c-4.9-8-4.4-23.9-3-28.6l-8.1,2.4
	c0-5.4,4-16.8,9.7-23.2l-5.1-0.8l0,0c3.4-6.8,8.6-12.7,14.8-17.2l0,0C45,52.1,45,59.3,50.5,62c-2.3-4-2.6-9-0.2-11.5
	c2.4-2.6,6.6-1.7,9.2,0.3c-0.8-2.2-3.1-5-6.5-5.2l0,0c6.5-3.3,13.9-5.1,21.6-5.1c1.5,0,2.9,0.1,4.3,0.2l0,0c2.3,0.9,5.6,4,7.1,5.9
	c0,0,0.1-2.3-1.2-5c8.4,2,12.5,5.4,14.2,7c0.3,3.6,1.4,5.7,2.9,9.1c-2.7-3-9.6-7.8-12.9-9c0,0-0.3,3.1-1.4,4.6
	c-6.5-4.6-9.7-5.8-9.7-5.8c-7.2,1-11.8,3.7-14.3,5.8l2.2,1.8c-4.3,1.3-7.1,4.9-7.1,4.9c0,0.1,3.9,0.6,3.9,0.6s-0.4,4.4,5.2,7.1
	c4.8,2.4,11.8-0.6,18.3,2c-4.3-4.8-7.3-7-7.3-7s-1.7-0.3-2.9-0.3c-1.5,0-3.7,0.3-6.2-0.6c-1.2-0.4-2.5-1.2-3.6-1.9c0,0,3-3,7.4-3.7
	c0,0,4,1.1,7.1,3.4c2.1-2,4.3-1.9,4.3-1.9s-2.2,2-1.5,4.4c3.1,2.7,6.6,6.6,6.6,6.6c3.5-1.9,11-1.4,12.6,0.3c-2-2.5-4.8-4.6-7-6.3
	c-0.3-0.9-2.7-4.2-3.1-4.5c0,0,2.3,0.7,4.3,2.5c0.6-0.8,1.7-1.6,3.2-2c1.5,1.3,1.8,3.2,1.8,3.5c-0.7,0.8-1.4,1.1-1.4,1.1l3.7,3.9
	l0.4-2.8C113,76.2,117.7,89.9,111.7,107.1 M44.7,32.2c4.9,2.2,8,4.9,8.6,5.4c-0.3-1.2-1.2-7.2-1.8-10.9c2.9,1.9,9.5,6.4,11.6,7.9
	c0.9-2.7,4-11.4,4-11.4s5.6,8.8,6.5,10.2c1.2-1.2,7.8-8.4,9.5-10.2c0.3,4.1,0.7,10.1,0.8,11c0.3-0.4,2.9-3.9,7.1-7.1
	c-1.8,3.6-2.7,8.4-3.1,12.4c-4.2-1.1-8.6-1.8-13.2-1.8c-8.8,0-17,2.2-24.1,6.2C49.4,40.1,47.4,35.3,44.7,32.2"/>
</svg>
