<?xml version="1.0" encoding="utf-8"?>
<!-- Generator: Adobe Illustrator 28.1.0, SVG Export Plug-In . SVG Version: 6.00 Build 0)  -->
<svg version="1.1"
	 id="Livello_1" xmlns:svg="http://www.w3.org/2000/svg" xmlns:inkscape="http://www.inkscape.org/namespaces/inkscape" xmlns:sodipodi="http://sodipodi.sourceforge.net/DTD/sodipodi-0.dtd" xmlns:dc="http://purl.org/dc/elements/1.1/" xmlns:cc="http://creativecommons.org/ns#" xmlns:rdf="http://www.w3.org/1999/02/22-rdf-syntax-ns#" inkscape:version="1.0 (4035a4f, 2020-05-01)"
	 xmlns="http://www.w3.org/2000/svg" xmlns:xlink="http://www.w3.org/1999/xlink" x="0px" y="0px" viewBox="0 0 261 471"
	 style="enable-background:new 0 0 261 471;" xml:space="preserve">
<style type="text/css">
	.st0{fill:#FFFFFF;}
	.st1{fill:#1A1659;}
	.st2{fill:url(#polygon892_00000023252320273269098130000004881889665465499039_);}
	.st3{fill:url(#path913_00000035500832385029591600000008531876291701286317_);}
	.st4{fill:#00A346;}
	.st5{fill:#E2E2E2;}
	.st6{fill:#DB052B;}
</style>
<sodipodi:namedview  bordercolor="#666666" borderopacity="1" fit-margin-bottom="0" fit-margin-left="0" fit-margin-right="0" fit-margin-top="0" gridtolerance="10" guidetolerance="10" id="namedview918" inkscape:current-layer="Livello_1" inkscape:cx="-54.494807" inkscape:cy="277.08619" inkscape:guide-bbox="true" inkscape:pagecheckerboard="true" inkscape:pageopacity="0" inkscape:pageshadow="2" inkscape:window-height="793" inkscape:window-maximized="1" inkscape:window-width="1440" inkscape:window-x="0" inkscape:window-y="25" inkscape:zoom="0.89035829" objecttolerance="10" pagecolor="#ffffff" showgrid="false" showguides="true">
	</sodipodi:namedview>
<rect id="rect835" y="51.7" class="st0" width="261" height="361.8"/>
<g id="g871" transform="matrix(0.92616116,0,0,0.92616116,0.84137887,0.42544866)">
	<path id="path859" class="st1" d="M39,385.6c-0.2-0.2-0.4-0.7-0.1-1l4.6-5.3c0.2-0.3,0.6-0.3,0.9-0.1c2.7,2.2,6.4,4.2,10.8,4.2
		c4.3,0,6.7-2,6.7-4.9c0-2.4-1.5-3.9-6.4-4.6l-2.2-0.3c-8.4-1.2-13-5.1-13-12.3c0-7.6,5.7-12.6,14.6-12.6c5.4,0,10.5,1.6,14,4.3
		c0.4,0.2,0.4,0.5,0.1,0.9l-3.7,5.5c-0.2,0.3-0.5,0.4-0.8,0.2c-3.1-2.1-6.2-3.1-9.6-3.1c-3.6,0-5.5,1.9-5.5,4.5
		c0,2.4,1.7,3.9,6.4,4.5l2.2,0.3c8.5,1.2,13,5,13,12.5c0,7.4-5.5,13-16.2,13C48.4,391.2,42.2,388.7,39,385.6z"/>
	<path id="path861" class="st1" d="M75.8,350c0-0.4,0.2-0.6,0.6-0.6h26.4c0.4,0,0.6,0.2,0.6,0.6v6.5c0,0.4-0.2,0.6-0.6,0.6H85
		c-0.2,0-0.4,0.1-0.4,0.4v8.2c0,0.2,0.1,0.4,0.4,0.4h14.8c0.4,0,0.6,0.2,0.6,0.6v6.4c0,0.4-0.2,0.6-0.6,0.6H85
		c-0.2,0-0.4,0.1-0.4,0.4v8.5c0,0.2,0.1,0.4,0.4,0.4h17.7c0.4,0,0.6,0.2,0.6,0.6v6.5c0,0.4-0.2,0.6-0.6,0.6H76.4
		c-0.4,0-0.6-0.2-0.6-0.6V350z"/>
	<path id="path863" class="st1" d="M131.5,390.5c-0.5,0-0.7-0.2-0.9-0.6l-7.1-15.1H118c-0.2,0-0.4,0.1-0.4,0.4v14.7
		c0,0.4-0.2,0.6-0.6,0.6h-7.7c-0.4,0-0.6-0.2-0.6-0.6v-40c0-0.4,0.2-0.6,0.6-0.6h16.4c8.4,0,14,5.3,14,12.8c0,5.3-2.8,9.4-7.3,11.4
		l8.1,16.2c0.2,0.4,0,0.7-0.4,0.7h-8.6L131.5,390.5z M130.9,362.2c0-3.1-2.2-5.1-5.6-5.1H118c-0.2,0-0.4,0.1-0.4,0.4v9.5
		c0,0.2,0.1,0.4,0.4,0.4h7.3C128.7,367.3,130.9,365.3,130.9,362.2L130.9,362.2z"/>
	<path id="path865" class="st1" d="M145.3,350c0-0.4,0.2-0.6,0.6-0.6h7.7c0.4,0,0.6,0.2,0.6,0.6v40c0,0.4-0.2,0.6-0.6,0.6H146
		c-0.4,0-0.6-0.2-0.6-0.6L145.3,350L145.3,350z"/>
	<path id="path867" class="st1" d="M160.9,350c0-0.4,0.2-0.6,0.6-0.6h26.4c0.4,0,0.6,0.2,0.6,0.6v6.5c0,0.4-0.2,0.6-0.6,0.6h-17.7
		c-0.2,0-0.4,0.1-0.4,0.4v8.2c0,0.2,0.1,0.4,0.4,0.4H185c0.4,0,0.6,0.2,0.6,0.6v6.4c0,0.4-0.2,0.6-0.6,0.6h-14.8
		c-0.2,0-0.4,0.1-0.4,0.4v8.5c0,0.2,0.1,0.4,0.4,0.4h17.7c0.4,0,0.6,0.2,0.6,0.6v6.5c0,0.4-0.2,0.6-0.6,0.6h-26.4
		c-0.4,0-0.6-0.2-0.6-0.6V350z"/>
	<path id="path869" class="st1" d="M218.1,350c0.1-0.4,0.4-0.6,0.8-0.6h7.6c0.4,0,0.7,0.2,0.8,0.6l13.9,40c0.1,0.4,0,0.6-0.4,0.6
		h-7.9c-0.4,0-0.7-0.2-0.8-0.6l-2.4-7.2h-14.4L213,390c-0.1,0.4-0.4,0.6-0.8,0.6h-7.9c-0.4,0-0.5-0.2-0.4-0.6L218.1,350z
		 M227.3,375.2l-4.7-14.4h-0.2l-4.7,14.4H227.3z"/>
</g>
<g id="g915" transform="matrix(0.92616116,0,0,0.92616116,0.04630987,1.1093283)">
	<g id="g898">
		<g id="g896">
			<g id="g894">
				<polygon id="polygon873" class="st1" points="40.5,265 101.9,265 140.8,328.6 				"/>
				<polygon id="polygon875" class="st1" points="241.2,265 179.7,265 140.8,328.6 				"/>
				<polygon id="polygon877" class="st1" points="101.9,265 140.8,265 179.7,265 140.8,162.3 				"/>
				
					<linearGradient id="polygon892_00000049179884372738125790000009180820500410986114_" gradientUnits="userSpaceOnUse" x1="137.449" y1="246.9494" x2="215.249" y2="246.9494" gradientTransform="matrix(0.8578 0 0 0.8578 -16.0052 84.9861)">
					<stop  offset="0" style="stop-color:#31ECFF"/>
					<stop  offset="4.937099e-02" style="stop-color:#2DE2FF"/>
					<stop  offset="0.2964" style="stop-color:#1BB2FF"/>
					<stop  offset="0.5147" style="stop-color:#0E90FF"/>
					<stop  offset="0.694" style="stop-color:#067BFF"/>
					<stop  offset="0.8118" style="stop-color:#0373FF"/>
				</linearGradient>
				<polygon id="polygon892" style="fill:url(#polygon892_00000049179884372738125790000009180820500410986114_);" points="
					140.8,328.6 179.7,265 101.9,265 				"/>
			</g>
		</g>
	</g>
	
		<linearGradient id="path913_00000081609230173227255880000000959799325307372211_" gradientUnits="userSpaceOnUse" x1="250.0197" y1="25.3458" x2="180.6667" y2="215.8915" gradientTransform="matrix(0.8578 0 0 0.8578 -16.0052 84.9861)">
		<stop  offset="0" style="stop-color:#31ECFF"/>
		<stop  offset="4.882737e-02" style="stop-color:#2DE2FF"/>
		<stop  offset="0.2932" style="stop-color:#1BB2FF"/>
		<stop  offset="0.5091" style="stop-color:#0E90FF"/>
		<stop  offset="0.6863" style="stop-color:#067BFF"/>
		<stop  offset="0.8028" style="stop-color:#0373FF"/>
	</linearGradient>
	<path id="path913" style="fill:url(#path913_00000081609230173227255880000000959799325307372211_);" d="M140.8,162.3l16.8,44.3
		h-21.2L122,244.8h50.1l7.6,20.2h61.5L168.5,95.8c-18.5,0-36.9,0-55.4,0L40.5,265H102L140.8,162.3z"/>
</g>
<g id="g1035" transform="matrix(0.94871791,0,0,0.93333333,-33.55458,21.875727)">
	<rect id="rect1009" x="75.4" y="384.6" class="st4" width="65" height="15"/>
	<rect id="rect1009-5" x="140.4" y="384.6" class="st5" width="65" height="15"/>
	<rect id="rect1009-55" x="205.4" y="384.6" class="st6" width="65" height="15"/>
</g>
</svg>
