<?xml version="1.0" encoding="UTF-8"?>
<svg id="Layer_1" data-name="Layer 1" xmlns="http://www.w3.org/2000/svg" viewBox="0 0 1440 1142.19148936">
  <defs>
    <style>
      .cls-1 {
        font-family: HadsutScript-Regular, 'Hadsut Script';
        font-size: 283.67730713px;
      }

      .cls-1, .cls-2 {
        fill: #fff;
      }

      .cls-2 {
        stroke-width: 0px;
      }
    </style>
  </defs>
  <path class="cls-2" d="m154.21276596,676.4893617c-4.85487952-38.78189521,31.16858524,89.55695851,131.01924593,61.31092662,13.55783397-3.83527769,28.28884625-11.07865473,37.11009725-42.4173096,19.40425532-68.93617021,103.14893617-35.74468085,103.14893617-35.74468085,0,0,40.12525122-91.7423888,152.68085106-52.08510638,164.47589017,57.95062027,286.34297701-66.61496081,291.11726812-307.15101869.20502133-10.32928693,13.93342291-13.72780206,18.87823924-4.65669443,45.9042264,84.2098373,139.10009103,321.31336626-144.804018,493.71322551,0,0-135.06382979,74.94555144-250.46808511-17.99061878,0,0-2.0219445,150.83653317-147.26016779,97.38240282-66.58947107-24.50788908-178.10490156-85.97814751-191.42236688-192.36112623Z"/>
  <g>
    <circle class="cls-2" cx="570.54773209" cy="372.40855116" r="70.63952637" transform="translate(-96.22305016 512.51410961) rotate(-45)"/>
    <circle class="cls-2" cx="663.19641373" cy="407.25791639" r="7.00976562"/>
    <path class="cls-2" d="m705.36072037,448.72715467l-8.64770508-166.36279297c-.39489746-7.59606934-5.63598633-14.07397461-12.98242188-16.04589844l-160.89257812-43.18432617c-7.34643555-1.97167969-15.12695312,1.01123047-19.27233887,7.38867188l-90.78930664,139.67321777c-4.14538574,6.37744141-3.71276855,14.69897461,1.07141113,20.61218262l104.78173828,129.50720215c4.78442383,5.91333008,12.83227539,8.07336426,19.93457031,5.35046387l155.54797363-59.63330078c7.10229492-2.72290039,11.64367676-9.70947266,11.24865723-17.30541992Zm-42.16430664-24.45947266c-5.70019531,0-10.74243164-2.82836914-13.83056641-7.1451416-15.60742188,27.40405273-45.08886719,45.92541504-78.81787109,45.92541504-49.97851562,0-90.63964844-40.66113281-90.63964844-90.63964844s40.66113281-90.63867188,90.63964844-90.63867188,90.63867188,40.66015625,90.63867188,90.63867188c0,6.26733398-.64001465,12.38769531-1.85693359,18.30029297,1.24438477-.29101562,2.53491211-.46044922,3.86669922-.46044922,9.37890625,0,17.00976562,7.63085938,17.00976562,17.00976562s-7.63085938,17.00976562-17.00976562,17.00976562Z"/>
  </g>
  <text class="cls-1" transform="translate(699.34681198 1035.44468397)"><tspan x="0" y="0">Balone</tspan></text>
  <text class="cls-1" transform="translate(862.13392136 859.25230116)"><tspan x="0" y="0">Sir</tspan></text>
  <path class="cls-2" d="m154.21276596,676.4893617c-4.85487952-38.78189521,31.16858524,89.55695851,131.01924593,61.31092662,13.55783397-3.83527769,28.28884625-11.07865473,37.11009725-42.4173096,19.40425532-68.93617021,103.14893617-35.74468085,103.14893617-35.74468085,0,0,40.12525122-91.7423888,152.68085106-52.08510638,164.47589017,57.95062027,286.34297701-66.61496081,291.11726812-307.15101869.20502133-10.32928693,13.93342291-13.72780206,18.87823924-4.65669443,45.9042264,84.2098373,139.10009103,321.31336626-144.804018,493.71322551,0,0-135.06382979,74.94555144-250.46808511-17.99061878,0,0-2.0219445,150.83653317-147.26016779,97.38240282-66.58947107-24.50788908-178.10490156-85.97814751-191.42236688-192.36112623Z"/>
  <g>
    <circle class="cls-2" cx="570.54773209" cy="372.40855116" r="70.63952637" transform="translate(-96.22305016 512.51410961) rotate(-45)"/>
    <circle class="cls-2" cx="663.19641373" cy="407.25791639" r="7.00976562"/>
    <path class="cls-2" d="m705.36072037,448.72715467l-8.64770508-166.36279297c-.39489746-7.59606934-5.63598633-14.07397461-12.98242188-16.04589844l-160.89257812-43.18432617c-7.34643555-1.97167969-15.12695312,1.01123047-19.27233887,7.38867188l-90.78930664,139.67321777c-4.14538574,6.37744141-3.71276855,14.69897461,1.07141113,20.61218262l104.78173828,129.50720215c4.78442383,5.91333008,12.83227539,8.07336426,19.93457031,5.35046387l155.54797363-59.63330078c7.10229492-2.72290039,11.64367676-9.70947266,11.24865723-17.30541992Zm-42.16430664-24.45947266c-5.70019531,0-10.74243164-2.82836914-13.83056641-7.1451416-15.60742188,27.40405273-45.08886719,45.92541504-78.81787109,45.92541504-49.97851562,0-90.63964844-40.66113281-90.63964844-90.63964844s40.66113281-90.63867188,90.63964844-90.63867188,90.63867188,40.66015625,90.63867188,90.63867188c0,6.26733398-.64001465,12.38769531-1.85693359,18.30029297,1.24438477-.29101562,2.53491211-.46044922,3.86669922-.46044922,9.37890625,0,17.00976562,7.63085938,17.00976562,17.00976562s-7.63085938,17.00976562-17.00976562,17.00976562Z"/>
  </g>
  <text class="cls-1" transform="translate(699.34681198 1035.44468397)"><tspan x="0" y="0">Balone</tspan></text>
  <text class="cls-1" transform="translate(862.13392136 859.25230116)"><tspan x="0" y="0">Sir</tspan></text>
</svg>