<?xml version="1.0" encoding="UTF-8"?>
<svg id="Layer_1" data-name="Layer 1" xmlns="http://www.w3.org/2000/svg" viewBox="0 0 1440 1142.1915">
  <defs>
    <style>
      .cls-1 {
        stroke-width: 10px;
      }

      .cls-1, .cls-2, .cls-3 {
        fill: #4a1c72;
      }

      .cls-1, .cls-3 {
        stroke: #fff;
        stroke-miterlimit: 10;
      }

      .cls-2 {
        stroke-width: 0px;
      }

      .cls-3 {
        stroke-width: 20px;
      }
    </style>
  </defs>
  <path class="cls-2" d="m503.5657,230.5228l-90.7893,139.6733c-4.1454,6.3775-3.7129,14.699,1.0715,20.6122l104.7817,129.5072c4.7843,5.9133,12.8322,8.0734,19.9345,5.3505l155.548-59.6334c7.1023-2.7229,11.6436-9.7093,11.2487-17.3054l-8.6478-166.3627c-.3949-7.5961-5.6361-14.0741-12.9824-16.0459l-160.8926-43.1843c-7.3464-1.9718-15.1269,1.0111-19.2723,7.3886Z"/>
  <path class="cls-2" d="m154.2128,676.4894c-4.8549-38.7819,31.1686,89.557,131.0192,61.3109,13.5578-3.8353,28.2888-11.0787,37.1101-42.4173,19.4043-68.9362,103.1489-35.7447,103.1489-35.7447,0,0,40.1253-91.7424,152.6809-52.0851,164.4759,57.9506,286.343-66.615,291.1173-307.151.205-10.3293,13.9334-13.7278,18.8782-4.6567,45.9042,84.2098,139.1001,321.3134-144.804,493.7132,0,0-135.0638,74.9456-250.4681-17.9906,0,0-2.0219,150.8365-147.2602,97.3824-66.5895-24.5079-178.1049-85.9781-191.4224-192.3611Z"/>
  <circle class="cls-3" cx="570.5477" cy="372.4085" r="80.6393"/>
  <circle class="cls-1" cx="663.1968" cy="407.258" r="12.0097"/>
  <g>
    <path class="cls-2" d="m796.3644,846.7988c1.3213-2.0791,2.7393-3.6875,4.2549-4.8223,1.5117-1.1348,3.4043-.6602,5.6738,1.418.5674.5674,1.1787,1.2324,1.8438,1.9863.6611.7578,1.2764,1.6084,1.8438,2.5527,1.8887,3.2178,3.5459,7.4248,4.9648,12.624,1.418,5.2031,2.0303,10.2607,1.8438,15.1768l-.2832.5674-.2842.8506c-4.5391,6.4316-8.6523,12.2959-12.3398,17.5879-3.6875,5.2969-7.0918,10.2617-10.2129,14.8936-3.1201,4.6357-6.0059,9.126-8.6514,13.4746-2.6514,4.3525-5.2041,8.7939-7.6592,13.333-4.7295,8.5098-9.127,17.0205-13.1914,25.5303-4.0693,8.5107-8.3682,18.0625-12.9072,28.6514l9.9287-2.5527c8.8867-2.6465,17.6807-5.7178,26.3818-9.2197,8.6963-3.4971,17.0205-7.1357,24.9639-10.9219,7.5615-3.7803,14.3252-7.5615,20.2822-11.3467,5.958-3.7812,10.7314-7.4688,14.3262-11.0635,1.5117-1.5117,3.1201-3.2627,4.8223-5.248s3.1211-4.0156,4.2559-6.0986c1.1338-2.0791,1.7012-4.2559,1.7012-6.5254s-.8506-4.4404-2.5527-6.5244c-1.1348-1.5107-2.7432-2.8369-4.8223-3.9707-3.2178-2.0791-7.1895-3.6396-11.915-4.6807-4.7295-1.0381-9.3613-1.7471-13.8994-2.1279-3.5947-.1865-6.8086-.1865-9.6455,0-3.2178.1904-5.5801-.5674-7.0918-2.2695-1.3252-1.3213-1.7998-3.1201-1.418-5.3896.1855-1.5117.8018-3.3555,1.8438-5.5322,1.0371-2.1719,2.2695-4.2549,3.6875-6.2402,1.418-1.9863,2.9297-3.7812,4.5391-5.3906,1.6045-1.6045,3.0713-2.5967,4.3965-2.9785,2.8369-.7529,5.958-1.7949,9.3613-3.1201,3.4043-1.3213,6.8086-2.9297,10.2129-4.8223,3.4043-1.8887,6.6172-3.874,9.6445-5.958,3.0234-2.0781,5.5762-4.2549,7.6592-6.5244,3.2139-3.4033,4.7744-6.4756,4.6807-9.2188-.0967-2.7393-1.1348-5.1514-3.1201-7.2344-1.9854-2.0791-4.5879-3.8291-7.8008-5.248-3.2178-1.418-6.3389-2.5977-9.3613-3.5459-8.3242-2.6465-17.0205-3.7812-26.0986-3.4043-9.0771.3818-17.7783,1.3252-26.0986,2.8369-6.2402.9482-12.3887,2.3184-18.4385,4.1133-6.0547,1.7998-11.6309,4.0205-16.7373,6.667-3.7852,2.083-7.4727,4.6807-11.0635,7.8008-3.5947,3.1201-6.5244,6.5732-8.7939,10.3545-1.8926,3.2178-3.1689,6.5732-3.8291,10.0703-.665,3.502-.4258,6.9502.709,10.3545l1.1348,3.6875h-3.6885c-3.5947,0-6.8076-.377-9.6445-1.1348-2.8369-.7539-5.3896-1.7949-7.6592-3.1201-4.3525-2.6465-7.6592-5.958-9.9287-9.9287-2.083-4.1582-3.1201-8.4131-3.1201-12.7656,0-5.1064,1.2275-9.7383,3.6875-13.9004,2.4551-4.3486,5.292-8.085,8.5098-11.2051,3.2139-3.1211,6.7109-5.9082,10.4961-8.3682,6.6182-4.3486,14.3701-7.9873,23.2617-10.9219,8.8877-2.9297,17.207-5.1504,24.9639-6.667,9.2637-1.7021,18.7227-2.6943,28.3672-2.9785,9.6455-.2832,19.1934.333,28.6523,1.8438,8.6963,1.5166,16.6387,3.9277,23.8281,7.2344,7.1855,3.3105,13.9932,8.085,20.4248,14.3252,1.7021,1.8926,3.6396,4.1621,5.8154,6.8086,2.1719,2.6504,4.1133,5.5312,5.8154,8.6523,1.7021,3.1201,3.1211,6.2412,4.2549,9.3613,1.1348,3.1201,1.6045,6.0059,1.4189,8.6523-.5674,4.9199-2.1768,9.459-4.8223,13.6162-3.0273,4.3525-7.0928,8.2266-12.1982,11.6309-3.4043,2.2695-7.0918,4.2549-11.0635,5.957-.9492.5674-1.9414,1.0908-2.9785,1.5605-1.042.4736-2.0352.8994-2.9785,1.2764.9434.3809,1.7949.7578,2.5527,1.1348.7539.3809,1.6045.7578,2.5527,1.1348.9443.3809,1.9375.8506,2.9785,1.418,1.0381.5674,2.0303,1.1348,2.9795,1.7021l5.1055,3.4043c7.7529,5.6738,12.7168,12.7656,14.8936,21.2754,2.1719,8.5107,1.0859,17.0215-3.2627,25.5312-2.2695,4.1621-5.2969,8.3242-9.0771,12.4814-4.7295,4.9209-10.4033,9.6943-17.0205,14.3262-6.6221,4.6367-13.6172,8.9355-20.9922,12.9072-8.8916,4.7295-17.8281,8.8428-26.8076,12.3398-8.9854,3.502-17.4463,6.29-25.3896,8.3691-3.4043,1.3252-6.7637,2.2246-10.0703,2.6943-3.3115.4746-6.666.2393-10.0703-.709-5.8643-1.7021-11.6309-6.0508-17.3047-13.0488l-1.1348,2.5527-3.1201,7.6592-1.1348,2.5527-2.5527-1.1348c-2.6514-1.1338-5.0625-2.8359-7.2344-5.1055-2.1758-2.2695-3.9717-4.8223-5.3896-7.6592s-2.3672-5.8154-2.8369-8.9365c-.4746-3.1201-.2393-6.0986.709-8.9355l.2842-.2832c6.0498-14.3701,11.6309-27.1357,16.7363-38.2969,5.1064-11.1562,10.4961-22.127,16.1699-32.9062,2.8369-5.293,5.6738-10.3984,8.5107-15.3193,2.8369-4.915,5.8594-10.0215,9.0771-15.3184,3.2139-5.292,6.667-10.873,10.3545-16.7363,3.6875-5.8604,7.8008-12.3848,12.3398-19.5742Z"/>
    <path class="cls-2" d="m979.0519,891.9033c.9434-1.3203,1.7461-2.5527,2.4111-3.6875.6602-1.1348,1.1787-2.4561,1.5596-3.9717.377-3.4043,1.5605-5.0088,3.5469-4.8223,1.9854.1904,4.1572,1.2764,6.5244,3.2627,2.3623,1.9854,4.583,4.4453,6.666,7.375,2.0791,2.9346,3.3066,5.5322,3.6875,7.8008.1865,1.1348-.0967,2.4609-.8506,3.9717-5.6738,8.3242-11.0195,16.2188-16.0273,23.6875-5.0137,7.4727-9.9775,15.7441-14.8936,24.8213l-1.9854,4.2559,8.7939-8.5107c3.4043-3.5898,7.2773-7.9434,11.6309-13.0488,4.3477-5.1064,8.4121-9.9287,12.1973-14.4678.7539-.7539,1.6055-.9443,2.5537-.5674.9443.3809,1.7949,1.1348,2.5527,2.2695.7539,1.1348,1.3701,2.5088,1.8438,4.1133.4697,1.6084.6123,3.0762.4258,4.3965-2.46,3.9717-5.7227,8.8428-9.7871,14.6094-4.0684,5.7715-7.9912,10.9219-11.7725,15.4609-3.9717,4.9199-7.8008,9.1748-11.4883,12.7656-3.6885,3.5947-6.667,5.7705-8.9365,6.5244-.5674.3809-1.2324.5674-1.9854.5674-1.8926,0-4.2109-.6602-6.9502-1.9863-2.7441-1.3203-5.1553-2.9297-7.2334-4.8223-1.8936-1.7021-3.7373-4.0156-5.5322-6.9502-1.7998-2.9297-2.5088-5.8154-2.1279-8.6514,0-.5674.0938-.9443.2842-1.1348-2.2695,2.46-4.5391,4.7773-6.8086,6.9492-2.2695,2.1768-4.4453,4.2109-6.5244,6.0996-3.4043,3.2178-6.5732,5.7227-9.5029,7.5176-2.9346,1.7998-5.3457,2.6943-7.2344,2.6943-1.5107,0-3.5459-.7529-6.0986-2.2686-2.5527-1.5117-4.9639-3.4043-7.2334-5.6738-1.8887-2.0791-3.5459-4.2549-4.9648-6.5244-1.418-2.2695-2.3135-4.4414-2.6943-6.5254-.5674-3.0225-.3281-6.4756.709-10.3535,1.041-3.874,2.792-7.9873,5.248-12.3398,2.2695-4.3486,5.0615-8.7461,8.3682-13.1914,3.3115-4.4414,6.8525-8.6523,10.6377-12.624,3.4043-3.5898,6.9014-6.9014,10.4961-9.9287,3.5908-3.0225,7.2783-5.5752,11.0635-7.6592,7.1855-4.5381,13.6162-6.8076,19.29-6.8076,3.7812,0,7.376.6641,10.7803,1.9854,3.4033,1.3252,6.5244,3.1201,9.3613,5.3896Zm-7.0918,8.2266c-.7588-.376-1.751-.4697-2.9795-.2832-1.2314.1904-2.2246.4746-2.9785.8506l-5.957,2.8369c-2.8369,1.7021-5.3896,3.4043-7.6592,5.1064s-4.5391,3.6875-6.8086,5.957c-2.46,2.2695-4.7295,4.6367-6.8076,7.0918-2.084,2.46-4.1621,5.0137-6.2412,7.6592l-4.5391,6.2412c-1.7021,2.46-3.3594,4.9199-4.9639,7.376-1.6094,2.46-3.1699,5.0127-4.6807,7.6592-.5674,1.1348-1.1836,2.3184-1.8438,3.5459-.665,1.2324-1.1836,2.4111-1.5605,3.5459.7539-.377,1.5117-.8027,2.2695-1.2764.7529-.4697,1.6045-1.0859,2.5527-1.8438l6.5244-4.5391c.9443-.9443,2.0303-1.8438,3.2627-2.6953,1.2275-.8506,2.4111-1.7461,3.5459-2.6943l7.0918-5.958,8.2266-7.0918,7.376-6.8076,6.5244-7.0928c1.1348-1.1338,2.2207-2.3135,3.2627-3.5459,1.0371-1.2275,2.0293-2.5039,2.9785-3.8291.376-.377.8955-1.0371,1.5596-1.9863.6611-.9434,1.2285-1.9854,1.7021-3.1201.4697-1.1348.8027-2.1719.9932-3.1201.1865-.9443-.0977-1.6045-.8506-1.9863Z"/>
    <path class="cls-2" d="m1065.8527,848.501c-8.8916,17.5879-18.0137,35.0342-27.375,52.3389-9.3613,17.3037-18.6777,34.6572-27.9414,52.0547v.2832l9.0771-8.7939c3.7812-3.5898,7.7529-7.6104,11.915-12.0566,4.1572-4.4404,8.3193-9.0283,12.4814-13.7578.7529-.7539,1.6045-.9443,2.5527-.5674.9443.3809,1.8438,1.1348,2.6953,2.2695.8506,1.1348,1.5117,2.5088,1.9854,4.1133.4697,1.6084.6123,3.1689.4258,4.6807-4.9199,7.1895-10.4033,14.2812-16.4531,21.2754-6.0547,6.999-11.8213,13.2402-17.3047,18.7227-2.6504,2.6514-5.1543,4.8232-7.5176,6.5254-2.3662,1.7012-4.3965,2.5527-6.0986,2.5527-.9482,0-2.8369-.709-5.6738-2.1279-2.8369-1.418-5.625-3.3066-8.3682-5.6729-2.7393-2.3633-4.8672-5.1064-6.3828-8.2275-1.5117-3.1201-1.418-6.2852.2832-9.5029,4.3535-8.5098,8.9365-17.3037,13.7588-26.3818,4.8223-9.0771,9.6445-18.1992,14.4678-27.375,4.8223-9.1709,9.4053-18.3408,13.7578-27.5166,4.3486-9.1709,8.2266-18.1064,11.6309-26.8076.7539-1.8877,1.4189-3.7803,1.9863-5.6729.5674-1.8887.8506-3.7812.8506-5.6738-.1904-3.5908.8955-5.4346,3.2627-5.5322,2.3623-.0928,5.1055.71,8.2266,2.4111,3.1201,1.7021,6.0498,3.9277,8.7939,6.667,2.7393,2.7432,4.4902,5.248,5.248,7.5176.5674,1.3252.4697,2.7432-.2842,4.2549Z"/>
    <path class="cls-2" d="m1063.299,940.4121c-.9482,1.5166-1.7021,3.5459-2.2695,6.0996-.5674,2.5527-.8506,4.9639-.8506,7.2334,0,3.9717.8506,6.3389,2.5527,7.0918,1.7021.7578,3.5908.6162,5.6738-.4248,2.0781-1.0381,4.1572-2.5049,6.2402-4.3975,2.0791-1.8887,3.498-3.4971,4.2559-4.8223-6.4316-4.1582-11.4453-9.2637-15.0352-15.3184-3.5947-6.0508-5.3896-12.2432-5.3896-18.5811,0-6.334,1.9365-12.4336,5.8154-18.2979,3.874-5.8594,10.0703-10.7793,18.5811-14.751,4.915-2.2695,10.0703-3.6387,15.46-4.1133,5.3896-.4697,10.3545,0,14.8926,1.4189,4.5391,1.418,8.3691,3.8779,11.4893,7.375,3.1201,3.502,4.9648,8.2754,5.5322,14.3262.376,4.9199-.1426,10.2607-1.5605,16.0273-1.418,5.7715-4.0205,11.8701-7.8008,18.2969l-.8516,1.1348,1.4189-.5674c4.7246-2.4551,9.1699-5.3896,13.332-8.7939,4.1582-3.4033,8.0361-6.9941,11.6309-10.7793.7539-.7539,1.4629-.9932,2.1279-.709.6602.2832,1.2275.9482,1.7021,1.9854.4697,1.042.8018,2.3184.9932,3.8301.1855,1.5156.1855,2.9336,0,4.2549-2.2695,2.8369-4.6367,5.6738-7.0928,8.5107-2.46,2.8359-5.3896,5.5801-8.7939,8.2266-3.4033,2.6504-7.4727,5.1543-12.1982,7.5166-4.7285,2.3672-10.4951,4.3975-17.3037,6.0996l-.2842.2832c-6.6221,7.7568-13.7578,13.1914-21.417,16.3115-7.6592,3.1211-15.3672,3.7373-23.1201,1.8438-8.3242-2.0781-14.6582-5.8145-19.0059-11.2051-4.3486-5.3896-6.1436-12.3398-5.3906-20.8496.3818-4.3486,1.1348-8.7461,2.2695-13.1914,1.1348-4.4414,2.9346-8.6523,5.3896-12.624,1.7021-1.8877,3.3066-2.3623,4.8232-1.418,1.5107.9482,3.0225,2.6504,4.5391,5.1064,1.5107,2.46,3.0225,5.3457,4.5381,8.6523,1.5117,3.3105,3.2139,6.3818,5.1064,9.2188Zm41.9844-44.5371c-1.1348-.1865-2.793.2393-4.9648,1.2764-2.1758,1.042-4.3037,2.5537-6.3828,4.5391-2.083,1.9854-4.0195,4.3525-5.8145,7.0918-1.7998,2.7441-3.0762,5.7227-3.8301,8.9355-.7578,3.2188-.709,6.5254.1416,9.9287.8516,3.4043,2.8809,6.8086,6.0996,10.2129.9434-.9443,2.3135-2.6465,4.1133-5.1064,1.7949-2.4551,3.7314-5.292,5.8154-8.5098,2.0781-3.2139,4.0156-6.5254,5.8154-9.9287,1.7949-3.4043,3.1201-6.4766,3.9707-9.2197.8516-2.7393.9443-5.0088.2842-6.8086-.665-1.7949-2.4111-2.5977-5.248-2.4111Z"/>
    <path class="cls-2" d="m1201.7316,978.1416c-.9492,0-2.6025-.5186-4.9648-1.5605-2.3672-1.0371-4.8223-2.5527-7.375-4.5391-2.5537-1.9854-4.8232-4.2061-6.8086-6.666-1.9854-2.4551-2.9785-5.1064-2.9785-7.9434,0-2.4551,1.1348-6.2852,3.4043-11.4883,2.2695-5.1992,4.915-10.6377,7.9424-16.3115,3.0234-5.6738,5.957-11.0146,8.7939-16.0283,2.8369-5.0078,5.0088-8.6514,6.5244-10.9209-7.9424,3.7852-14.7061,8.5098-20.2822,14.1836-5.5811,5.6738-10.6377,11.8701-15.1768,18.5811-4.5391,6.7148-8.75,13.8066-12.624,21.2754-3.8779,7.4736-8.085,14.707-12.623,21.7012-3.0234-1.5107-5.6738-3.4033-7.9434-5.6729-2.0791-2.0791-4.2061-4.8232-6.3828-8.2266-2.1719-3.4043-2.7881-6.7109-1.8438-9.9287,1.1348-5.1064,3.3105-10.7803,6.5244-17.0215,3.2178-6.2402,6.4805-12.4326,9.7871-18.5801,3.3066-6.1436,6.1924-11.8662,8.6523-17.1631,2.4551-5.292,3.6875-9.6445,3.6875-13.0488,0-3.5908,1.0859-5.4834,3.2617-5.6738,2.1729-.1855,4.6328.5674,7.376,2.2695,2.7393,1.7021,5.4346,3.8789,8.085,6.5244,2.6465,2.6514,4.3486,5.0137,5.1064,7.0918.5674,1.3262.4697,2.8369-.2842,4.5391l-.8506,1.7021,15.8857-14.4678c3.2139-2.8359,6.334-5.1992,9.3613-7.0918,3.0225-1.8877,5.5762-2.8369,7.6592-2.8369,1.7021,0,3.5908.665,5.6738,1.9863,2.0791,1.3252,4.1572,2.9336,6.2402,4.8223,2.0791,1.8926,3.9229,3.8779,5.5322,5.957,1.6045,2.083,2.6953,3.8789,3.2627,5.3896.376,1.8936.1855,3.3115-.5674,4.2559l-25.8154,49.9268,8.7939-8.7939c3.7812-3.5898,7.8018-7.6104,12.0566-12.0566,4.2549-4.4404,8.3682-9.0283,12.3398-13.7578.7539-.7539,1.6533-.9443,2.6953-.5674,1.0371.3809,1.9854,1.1348,2.8369,2.2695.8506,1.1348,1.5107,2.5088,1.9854,4.1133.4697,1.6084.6113,3.1689.4258,4.6807-4.9199,7.1895-10.3545,14.2324-16.3115,21.1338-5.957,6.9062-11.6797,13.0977-17.1631,18.5811-2.6504,2.6504-5.2031,4.8711-7.6592,6.666-2.46,1.7998-4.5381,2.6953-6.2402,2.6953Z"/>
    <path class="cls-2" d="m1327.9679,928.498c-4.9209,5.6738-10.4033,11.2539-16.4541,16.7373-6.0547,5.4873-12.1045,10.5928-18.1553,15.3184-6.8076,5.1064-13.332,9.3164-19.5732,12.623-6.2412,3.3115-11.5381,4.9648-15.8857,4.9648-2.6514,0-5.5811-.8027-8.7939-2.4111-3.2188-1.6045-6.2412-3.6396-9.0781-6.0996-2.8369-2.2695-5.292-4.7734-7.376-7.5176-2.0781-2.7393-3.4033-5.3408-3.9707-7.8008l-.2842-.2832c-.5674-3.5908-.4697-7.2783.2842-11.0635.9482-4.1582,2.3662-8.3203,4.2549-12.4824,3.4043-6.8076,7.8984-13.377,13.4746-19.7148,5.5762-6.334,11.3916-11.7734,17.4463-16.3115,2.8369-2.0791,5.625-3.9229,8.3682-5.5322,2.7393-1.6045,5.4346-3.0713,8.085-4.3965,5.8594-2.4561,11.2988-3.5908,16.3115-3.4043,5.0088.1904,10.0703,2.46,15.1768,6.8086,2.6465,2.083,4.8672,4.4941,6.666,7.2334,1.7959,2.7432,2.8818,5.4385,3.2627,8.085,0,.1904.0439.3809.1416.5674.0928.1904.1416.3809.1416.5674,0,2.6504-1.75,5.957-5.248,9.9287-3.501,3.9707-8.084,7.8496-13.7578,11.6309-4.1621,2.8359-7.8984,5.248-11.2051,7.2334-3.3115,1.9854-6.6221,3.6436-9.9287,4.9639-3.3115,1.3262-6.8086,2.3184-10.4961,2.9795-3.6885.6641-8.085,1.0898-13.1914,1.2764-5.6738,7.375-8.04,12.3887-7.0918,15.0342.9443,2.6514,6.2412,1.7998,15.8857-2.5527,5.4834-2.6465,10.6826-5.4824,15.6025-8.5098,3.5898-2.0791,7.3271-4.3975,11.2051-6.9502,3.874-2.5537,7.7041-5.3418,11.4893-8.3691,2.6455-1.8877,5.248-3.9229,7.8008-6.0986,2.5527-2.1719,5.0576-4.2998,7.5176-6.3828.7539-.9443,1.6045-1.2275,2.5527-.8516.9443.3818,1.7471,1.1348,2.4111,2.2695.6611,1.1348,1.2285,2.5088,1.7021,4.1133.4697,1.6094.71,3.0762.71,4.3975Zm-28.084-27.2334c.376-.5674.7529-1.0859,1.1338-1.5596.377-.4697.6611-.8955.8516-1.2773-2.46.5674-5.1064,1.7998-7.9434,3.6885-2.8369,1.8926-5.8643,4.1621-9.0771,6.8076-3.0273,2.46-6.0547,5.248-9.0781,8.3691-3.0273,3.1201-5.8643,6.2891-8.5098,9.5029l4.2549-2.2695c3.5898-2.0791,7.043-4.2998,10.3545-6.666,3.3066-2.3623,6.2852-4.6807,8.9355-6.9502v-.2842c2.0791-1.7021,3.874-3.3066,5.3896-4.8223,1.5117-1.5117,2.7393-3.0225,3.6885-4.5391Z"/>
  </g>
  <g>
    <path class="cls-2" d="m988.9376,724.2217c-1.3252-.377-2.6504-.709-3.9717-.9932-1.3252-.2832-2.7432-.6113-4.2549-.9932-6.4316-1.5107-12.624-3.2129-18.5811-5.1055-5.957-1.8887-11.6797-5.1064-17.1621-9.6455-3.5947-2.8369-6.29-5.8594-8.085-9.0771-1.7998-3.2139-3.0762-6.4277-3.8301-9.6455-.5674-3.7803-.4736-7.6104.2842-11.4883.7529-3.874,2.0791-7.5176,3.9717-10.9219,3.2129-6.2412,8.4121-11.4893,15.6016-15.7441,7.1855-4.2549,15.3193-7.7041,24.3965-10.3545,11.1562-3.2139,22.5527-5.1504,34.1836-5.8154,11.6309-.6602,21.3193-.2344,29.0762,1.2764,2.6465.5674,5.1514,1.3252,7.5176,2.2695,2.3623.9492,4.583,1.9863,6.667,3.1211,2.2695,1.3252,4.3477,2.792,6.2402,4.3965,1.8887,1.6094,3.5908,3.3604,5.1064,5.248,1.7021,1.8926,3.1201,3.8789,4.2549,5.957,1.1348,2.084,2.1719,4.2559,3.1211,6.5244,1.7021,4.7295,2.4551,9.5527,2.2695,14.4678v1.4189c0,.5674-.0977.9482-.2842,1.1348-.7578,4.1621-3.4043,8.2266-7.9424,12.1973-2.084,2.084-4.5879,3.9277-7.5176,5.5322-2.9346,1.6094-6.0059,3.1689-9.2197,4.6807h-.5674c-2.083.5674-4.3975.7578-6.9502.5674-2.5527-.1865-4.9639-.7539-7.2334-1.7021-2.46-.9443-4.3525-2.0791-5.6738-3.4043-.9482-.9443-1.7021-1.8438-2.2695-2.6943-.5674-.8516-1.042-1.8447-1.418-2.9795-.3818-2.2686-.1914-4.3477.5674-6.2402l.5674-1.1348,1.418-.5674c1.7021-.377,4.0645-1.6045,7.0918-3.6875,3.0234-2.0791,5.8594-4.4414,8.5107-7.0928,2.2695-2.0781,4.1572-4.1133,5.6729-6.0986,1.5117-1.9854,2.2695-3.6387,2.2695-4.9639l-1.1348-.8516c-1.1348-.377-1.9854-.5674-2.5527-.5674-5.4873-1.3213-12.6729-1.8877-21.5596-1.7021-8.8916.1904-17.7783,1.1348-26.666,2.8369-6.998,1.3252-13.4746,3.1201-19.4316,5.3896s-10.5449,5.1064-13.7578,8.5107c-2.2695,2.2695-3.6885,4.7295-4.2559,7.375-.5674,2.084-.2832,3.8789.8516,5.3906.7529.9482,2.0303,1.9414,3.8291,2.9785,1.7959,1.041,3.8301,2.0342,6.0996,2.9785,3.7803,1.7021,7.8008,3.1689,12.0557,4.3965,4.2559,1.2324,7.7041,2.2256,10.3545,2.9785l1.9863.5674c6.2402,1.5166,13.1904,3.4043,20.8496,5.6738s15.0352,5.2041,22.127,8.7939c7.0918,3.5947,13.2842,7.9922,18.5811,13.1914,5.292,5.2031,8.6035,11.5859,9.9287,19.1484.9443,4.9199.377,10.3096-1.7021,16.1689-.9482,3.0273-2.3184,6.0059-4.1133,8.9365-1.7998,2.9336-3.7363,5.7217-5.8154,8.3682-4.1621,5.2969-9.3613,10.4961-15.6025,15.6025-6.4316,5.2959-13.4297,10.0254-20.9922,14.1836h-.2832c-3.5947,2.083-7.3311,4.0693-11.2051,5.957-3.8789,1.8926-7.8018,3.6875-11.7725,5.3896-8.3242,3.5947-16.7373,6.7158-25.248,9.3613-4.3525,1.3252-8.6514,2.5088-12.9072,3.5459-4.2549,1.042-8.3682,1.8447-12.3398,2.4111-3.9717.7588-7.8008,1.3262-11.4893,1.7021-3.6875.3818-7.1406.5674-10.3535.5674-5.4873,0-12.5791-1.0371-21.2764-3.1201-3.4043-.9443-6.8564-2.0791-10.3535-3.4043-3.502-1.3203-6.8574-2.8369-10.0713-4.5391-5.8643-2.8359-10.7793-6.4268-14.751-10.7793-1.8926-2.0791-3.4531-4.1572-4.6807-6.2412-1.2324-2.0781-2.0342-4.4414-2.4111-7.0918,0-.377-.0488-.8506-.1416-1.418-.0977-.5674-.1426-1.0371-.1426-1.4189,0-.376-.0479-.8018-.1416-1.2764-.0977-.4697-.1416-.8955-.1416-1.2764,0-2.4561.3281-4.8223.9932-7.0918.6602-2.2695,1.4629-4.6318,2.4111-7.0918,3.0225-6.0508,7.4688-12.0078,13.333-17.8721,5.8594-5.8594,12.4814-11.0635,19.8574-15.6025,7.375-4.5381,15.1768-8.2266,23.4033-11.0635,8.2266-2.8359,16.3115-4.2549,24.2539-4.2549,6.8086,0,13.333,1.3252,19.5742,3.9717,6.9941,3.4043,12.291,7.6592,15.8857,12.7656,2.4551,3.4043,3.874,7.1895,4.2549,11.3467.1865,3.7852-.5674,7.7568-2.2695,11.915-2.6504,5.8633-7.5654,11.1602-14.751,15.8857l-2.8369,2.2695-1.1348-3.6885c-.9482-2.8359-2.0342-5.292-3.2617-7.375-1.2324-2.0791-2.6025-3.874-4.1133-5.3896-1.5166-1.5117-3.0273-2.7881-4.5391-3.8301-1.5156-1.0371-3.1201-2.0303-4.8223-2.9785l-2.5537-1.1348c-3.9717-1.3213-8.3682-1.5605-13.1904-.709-4.8232.8506-9.6006,2.6016-14.3262,5.248-4.7295,2.6504-9.126,5.8643-13.1904,9.6445-4.0693,3.7852-7.1416,7.9434-9.2197,12.4824-.3818.7578-.709,1.5156-.9932,2.2686-.2832.7588-.6162,1.5166-.9932,2.2695-.3809.7578-.5674,1.5166-.5674,2.2695v1.9863c0,1.7021.377,3.0273,1.1348,3.9707.7539.9492,2.1719,1.7998,4.2559,2.5537,2.0781.7578,5.1055,1.1348,9.0771,1.1348,3.5908,0,6.9502-.0938,10.0703-.2842,3.1211-.1855,6.2852-.5674,9.5039-1.1348,6.6172-.9434,13.4258-2.4551,20.4248-4.5381,8.6963-2.4561,16.7363-5.293,24.1123-8.5107,8.5098-3.5898,16.2627-7.376,23.2617-11.3467h.2832c7.5615-4.1582,14.5605-8.6035,20.9922-13.333,5.8594-4.3486,11.0635-8.8877,15.6025-13.6172l1.418-1.418,1.1348-1.1348c.7539-.5674,1.2764-1.0859,1.5605-1.5605.2832-.4697.709-1.1787,1.2764-2.127,2.2695-3.9717,2.3135-7.5176.1416-10.6377-2.1758-3.1211-5.4385-5.9092-9.7861-8.3691-5.4883-3.0225-11.5869-5.4824-18.2979-7.375-6.7148-1.8887-12.3398-3.4043-16.8789-4.5391l-3.6875-1.1348Z"/>
    <path class="cls-2" d="m1139.0021,742.377c.7539-.7539,1.6045-.9443,2.5537-.5674.9434.3809,1.8438,1.1348,2.6943,2.2695.8516,1.1348,1.5117,2.5088,1.9863,4.1133.4697,1.6084.6113,3.1689.4248,4.6807-4.9199,7.1895-10.4023,14.2812-16.4531,21.2754-6.0547,6.999-11.8213,13.2402-17.3037,18.7227-2.6514,2.6514-5.1553,4.8232-7.5176,6.5254-2.3672,1.7012-4.3975,2.5527-6.0996,2.5527-.9482,0-2.8369-.709-5.6729-2.1279-2.8369-1.418-5.625-3.3066-8.3691-5.6729-2.7393-2.3633-4.8662-5.1064-6.3828-8.2275-1.5107-3.1201-1.418-6.2852.2842-9.5029,4.5391-9.0771,8.8428-17.9648,12.9072-26.665,4.0693-8.6973,7.9873-17.4912,11.7725-26.3828.7539-2.0781,1.4189-4.0645,1.9863-5.957.5664-1.8877.8506-3.7803.8506-5.6729-.1904-3.5908.8955-5.4346,3.2627-5.5322,2.3623-.0928,5.0078.7578,7.9424,2.5527,2.9297,1.7998,5.8154,4.0693,8.6523,6.8086,2.8369,2.7441,4.6318,5.1553,5.3896,7.2334.5674,1.5166.377,2.9346-.5674,4.2559l-25.8145,49.6436v.2832l8.7939-8.7939c3.7812-3.5898,7.8008-7.6104,12.0566-12.0566,4.2549-4.4404,8.4609-9.0283,12.623-13.7578Zm-9.9287-39.999c-.3809.5674-1.374.4746-2.9785-.2832-1.6084-.7539-3.2617-1.7021-4.9639-2.8369s-3.1211-2.3623-4.2559-3.6875c-1.1338-1.3213-1.418-2.4561-.8506-3.4043.9443-2.4561,1.7949-5.4346,2.5527-8.9355.7539-3.4971,1.2285-6.8525,1.4189-10.0713,0-2.6455-.4258-4.915-1.2764-6.8076-.8516-1.8887-1.2773-3.0234-1.2773-3.4043,0-3.2139,1.0381-4.916,3.1211-5.1064,2.0781-.1855,4.5391.333,7.375,1.5605,2.8369,1.2324,5.625,2.792,8.3691,4.6807,2.7393,1.8926,4.6807,3.3105,5.8154,4.2549,3.2129,2.8369,4.7246,5.8643,4.5381,9.0781-.1904,3.2178-1.1826,6.3828-2.9785,9.5029-1.7988,3.1201-4.1133,6.0547-6.9502,8.7939-2.8359,2.7441-5.3896,4.9648-7.6592,6.666Z"/>
    <path class="cls-2" d="m1139.8488,801.3818c-2.4551-1.1348-5.1055-3.0234-7.9424-5.6738-.9443-.9443-1.9863-2.127-3.1201-3.5459-1.1348-1.418-2.1729-2.9785-3.1211-4.6807-.9443-1.7021-1.6045-3.4043-1.9854-5.1064-.377-1.7012-.377-3.3066,0-4.8223,1.1348-5.1064,3.3594-11.0146,6.666-17.7295,3.3115-6.7109,6.7158-13.4258,10.2129-20.1416,3.4971-6.71,6.5684-13,9.2188-18.8643,2.6465-5.8594,3.874-10.4961,3.6885-13.9004,0-3.4043,1.0859-5.1992,3.2617-5.3896,2.1719-.1865,4.6807.5674,7.5176,2.2695s5.5322,3.8779,8.085,6.5244c2.5527,2.6504,4.2998,5.0127,5.248,7.0918.377,1.5166-.0977,3.5947-1.418,6.2412l12.7646-11.9141c2.0791-1.7021,4.2998-3.4043,6.667-5.1064,2.3623-1.7021,4.7734-2.9297,7.2334-3.6885,2.4561-.7529,4.916-.8506,7.376-.2832,2.4551.5674,4.8223,2.1768,7.0918,4.8223,2.4561,2.8369,4.0156,6.1973,4.6807,10.0703.6602,3.8789.6113,7.5176-.1416,10.9219-.7578,3.4043-2.0352,6.1963-3.8301,8.3682-1.7998,2.1768-3.8291,2.9795-6.0986,2.4121-.9492-.1865-1.8926-.7539-2.8369-1.7021-.9482-.9443-1.8438-1.9375-2.6953-2.9785-.8506-1.0371-1.751-2.0303-2.6943-2.9795-.9492-.9434-1.8926-1.6045-2.8369-1.9854-2.083-.5674-4.7783.0488-8.085,1.8438-3.3105,1.7998-6.4805,3.8301-9.5029,6.0996-5.2969,3.9707-9.8848,8.5098-13.7588,13.6162-3.8779,5.1064-7.4727,10.4961-10.7793,16.1699-3.3115,5.6729-6.4316,11.4443-9.3613,17.3037-2.9346,5.8643-6.0996,11.4453-9.5039,16.7373Z"/>
  </g>
</svg>